<?xml version="1.0" encoding="UTF-8" standalone="no"?>
<!-- Generator: Adobe Illustrator 16.0.0, SVG Export Plug-In . SVG Version: 6.00 Build 0)  -->

<svg
   xmlns:dc="http://purl.org/dc/elements/1.1/"
   xmlns:cc="http://creativecommons.org/ns#"
   xmlns:rdf="http://www.w3.org/1999/02/22-rdf-syntax-ns#"
   xmlns:svg="http://www.w3.org/2000/svg"
   xmlns="http://www.w3.org/2000/svg"
   xmlns:sodipodi="http://sodipodi.sourceforge.net/DTD/sodipodi-0.dtd"
   xmlns:inkscape="http://www.inkscape.org/namespaces/inkscape"
   version="1.1"
   x="0px"
   y="0px"
   width="32px"
   height="31.999px"
   viewBox="0 0 32 31.999"
   enable-background="new 0 0 32 31.999"
   xml:space="preserve"
   id="svg2"
   inkscape:version="0.91 r13725"
   sodipodi:docname="problems.svg"><metadata
     id="metadata54"><rdf:RDF><cc:Work
         rdf:about=""><dc:format>image/svg+xml</dc:format><dc:type
           rdf:resource="http://purl.org/dc/dcmitype/StillImage" /></cc:Work></rdf:RDF></metadata><defs
     id="defs52" /><sodipodi:namedview
     pagecolor="#ffffff"
     bordercolor="#666666"
     borderopacity="1"
     objecttolerance="10"
     gridtolerance="10"
     guidetolerance="10"
     inkscape:pageopacity="0"
     inkscape:pageshadow="2"
     inkscape:window-width="1920"
     inkscape:window-height="1028"
     id="namedview50"
     showgrid="false"
     inkscape:zoom="7.3752303"
     inkscape:cx="16"
     inkscape:cy="15.9995"
     inkscape:window-x="0"
     inkscape:window-y="147"
     inkscape:window-maximized="1"
     inkscape:current-layer="svg2" /><g
     id="Layer_2" /><g
     id="Layer_1" /><g
     id="Layer_4" /><g
     id="Layer_3" /><g
     id="Layer_6" /><g
     id="Layer_7" /><g
     id="Layer_5" /><g
     id="g4201"
     transform="translate(0.625,-0.32799973)"><g
       id="g4182"><g
         id="Layer_9"><g
           id="g12"><path
             d="m 28.617,11.821 0,2.015 -19.65,0 0,-2.015 19.65,0 z m -15.696,1.008 c 0,-0.136 -0.052,-0.27 -0.145,-0.365 -0.092,-0.096 -0.218,-0.151 -0.348,-0.151 -0.13,0 -0.257,0.056 -0.349,0.151 -0.092,0.095 -0.144,0.229 -0.144,0.365 0,0.136 0.052,0.269 0.144,0.365 0.092,0.096 0.218,0.151 0.349,0.151 0.13,0 0.256,-0.055 0.348,-0.151 0.093,-0.096 0.145,-0.23 0.145,-0.365 z m -1.221,0 c 0,-0.135 -0.052,-0.27 -0.144,-0.365 -0.092,-0.096 -0.218,-0.151 -0.348,-0.151 -0.13,0 -0.257,0.056 -0.349,0.151 -0.091,0.095 -0.144,0.229 -0.144,0.365 0,0.136 0.053,0.269 0.144,0.365 0.092,0.096 0.218,0.151 0.349,0.151 0.13,0 0.256,-0.055 0.348,-0.151 0.092,-0.096 0.144,-0.23 0.144,-0.365 z m -1.22,0 c 0,-0.136 -0.052,-0.27 -0.144,-0.364 -0.093,-0.097 -0.219,-0.152 -0.349,-0.152 -0.129,0 -0.257,0.056 -0.348,0.152 -0.092,0.094 -0.145,0.228 -0.145,0.364 0,0.135 0.053,0.269 0.145,0.365 0.092,0.096 0.219,0.151 0.348,0.151 0.13,0 0.256,-0.055 0.349,-0.151 0.092,-0.096 0.144,-0.23 0.144,-0.365 z"
             id="path14"
             inkscape:connector-curvature="0"
             style="fill:#c8d5fc" /><rect
             x="15.066"
             y="14.14"
             width="1.351"
             height="12.819"
             id="rect16"
             style="fill:#c8d5fc" /><rect
             x="1.951"
             y="8.3330002"
             width="20.033001"
             height="1.6440001"
             id="rect18"
             style="fill:#c8d5fc" /><rect
             x="8.967"
             y="13.836"
             width="20.033001"
             height="1.887"
             id="rect20"
             style="fill:#c8d5fc" /><path
             d="m 29.054,22.4 c 0.221,0 0.42,-0.049 0.548,-0.191 l 0,-10.904 c 0,-0.285 -0.221,-0.516 -0.493,-0.516 l -6.342,0 0,-4.988 c 0,-0.285 -0.221,-0.516 -0.493,-0.516 l -20.634,0 c -0.272,0 -0.493,0.231 -0.493,0.516 l 0,15.549 c 0,0.284 0.221,0.515 0.493,0.515 l 2.105,0 C 3.943,21.553 4.01,21.108 3.622,20.927 3.59,20.912 3.571,20.891 3.548,20.872 3.533,20.869 3.519,20.868 3.505,20.865 c 0,0 0,-10e-4 10e-4,-10e-4 -0.022,-0.006 -0.044,-0.019 -0.065,-0.03 l -1.308,0 0,-11.47 19.649,0 0,1.425 -13.308,0 c -0.272,0 -0.493,0.231 -0.493,0.516 l 0,9.529 -2.823,0 c -0.113,0.125 -0.196,0.263 -0.173,0.489 0.021,0.202 0.074,0.392 0.189,0.541 l 2.808,0 0,4.99 c 0,0.282 0.22,0.516 0.493,0.516 l 20.635,0 c 0.272,0 0.493,-0.233 0.493,-0.516 l 0,-2.676 c -0.088,-0.145 -0.198,-0.275 -0.355,-0.306 -0.253,-0.048 -0.448,0.056 -0.63,0.193 l 0,2.272 -12.71,0 0,-11.47 12.708,0 0,7.304 c 0.121,0.131 0.261,0.229 0.438,0.229 z M 2.133,8.333 l 0,-2.016 19.649,0 0,2.016 -19.649,0 z m 12.789,18.006 -5.955,0 0,-11.47 5.955,0 0,11.47 z m -5.955,-12.503 0,-2.015 19.649,0 0,2.015 -19.649,0 z"
             id="path22"
             inkscape:connector-curvature="0"
             style="fill:#2f2b82" /><path
             d="m 25.608,16.929 c 0.272,0 0.493,0.229 0.493,0.517 0,0.284 -0.221,0.515 -0.493,0.515 l -7.406,0 c -0.271,0 -0.492,-0.23 -0.492,-0.515 0,-0.287 0.221,-0.517 0.492,-0.517 l 7.406,0 z"
             id="path24"
             inkscape:connector-curvature="0"
             style="fill:#2f2b82" /><path
             d="m 25.608,18.786 c 0.272,0 0.493,0.231 0.493,0.516 0,0.285 -0.221,0.516 -0.493,0.516 l -7.406,0 c -0.271,0 -0.492,-0.23 -0.492,-0.516 0,-0.284 0.221,-0.516 0.492,-0.516 l 7.406,0 z"
             id="path26"
             inkscape:connector-curvature="0"
             style="fill:#2f2b82" /><path
             d="m 25.608,20.645 c 0.272,0 0.493,0.229 0.493,0.515 0,0.284 -0.221,0.516 -0.493,0.516 l -7.406,0 c -0.271,0 -0.492,-0.231 -0.492,-0.516 0,-0.285 0.221,-0.515 0.492,-0.515 l 7.406,0 z"
             id="path28"
             inkscape:connector-curvature="0"
             style="fill:#2f2b82" /><path
             d="m 21.782,6.317 0,2.016 -19.649,0 0,-2.016 19.649,0 z M 6.087,7.324 C 6.087,7.19 6.035,7.055 5.942,6.96 5.851,6.863 5.724,6.809 5.594,6.809 5.464,6.809 5.337,6.863 5.246,6.96 5.154,7.055 5.102,7.189 5.102,7.324 c 0,0.136 0.053,0.27 0.144,0.365 0.092,0.096 0.218,0.152 0.348,0.152 0.13,0 0.257,-0.056 0.349,-0.152 C 6.035,7.593 6.087,7.46 6.087,7.324 Z m -1.221,0 C 4.866,7.189 4.813,7.055 4.722,6.96 4.63,6.863 4.503,6.809 4.373,6.809 4.244,6.809 4.117,6.863 4.025,6.96 3.934,7.055 3.881,7.189 3.881,7.324 c 0,0.136 0.053,0.27 0.144,0.365 0.092,0.096 0.219,0.152 0.348,0.152 0.13,0 0.257,-0.056 0.349,-0.152 C 4.813,7.594 4.866,7.46 4.866,7.324 Z m -1.22,0 C 3.646,7.19 3.594,7.055 3.502,6.96 3.41,6.863 3.283,6.809 3.152,6.809 3.023,6.809 2.896,6.863 2.804,6.96 2.712,7.055 2.66,7.189 2.66,7.324 c 0,0.136 0.053,0.27 0.145,0.365 0.092,0.096 0.219,0.152 0.348,0.152 0.13,0 0.257,-0.056 0.35,-0.152 C 3.593,7.593 3.646,7.46 3.646,7.324 Z"
             id="path30"
             inkscape:connector-curvature="0"
             style="fill:#c8d5fc" /><path
             d="m 13.522,16.928 c 0.272,0 0.493,0.23 0.493,0.517 0,0.284 -0.221,0.515 -0.493,0.515 l -3.154,0 c -0.272,0 -0.493,-0.23 -0.493,-0.515 0,-0.287 0.221,-0.517 0.493,-0.517 l 3.154,0 z"
             id="path32"
             inkscape:connector-curvature="0"
             style="fill:#2f2b82" /><path
             d="m 13.522,18.786 c 0.272,0 0.493,0.231 0.493,0.516 0,0.285 -0.221,0.516 -0.493,0.516 l -3.154,0 c -0.272,0 -0.493,-0.23 -0.493,-0.516 0,-0.284 0.221,-0.516 0.493,-0.516 l 3.154,0 z"
             id="path34"
             inkscape:connector-curvature="0"
             style="fill:#2f2b82" /><path
             d="m 13.522,20.645 c 0.272,0 0.493,0.229 0.493,0.515 0,0.284 -0.221,0.516 -0.493,0.516 l -3.154,0 c -0.272,0 -0.493,-0.231 -0.493,-0.516 0,-0.285 0.221,-0.515 0.493,-0.515 l 3.154,0 z"
             id="path36"
             inkscape:connector-curvature="0"
             style="fill:#2f2b82" /><path
             d="m 6.688,11.425 c 0.272,0 0.493,0.23 0.493,0.515 0,0.285 -0.221,0.517 -0.493,0.517 l -3.154,0 c -0.272,0 -0.494,-0.231 -0.494,-0.517 0,-0.285 0.221,-0.515 0.494,-0.515 l 3.154,0 z"
             id="path38"
             inkscape:connector-curvature="0"
             style="fill:#2f2b82" /><path
             d="m 6.688,13.283 c 0.272,0 0.493,0.229 0.493,0.516 0,0.285 -0.221,0.516 -0.493,0.516 l -3.154,0 c -0.272,0 -0.494,-0.231 -0.494,-0.516 0,-0.286 0.221,-0.516 0.494,-0.516 l 3.154,0 z"
             id="path40"
             inkscape:connector-curvature="0"
             style="fill:#2f2b82" /><path
             d="m 6.688,15.14 c 0.272,0 0.493,0.23 0.493,0.516 0,0.285 -0.221,0.517 -0.493,0.517 l -3.154,0 c -0.272,0 -0.494,-0.231 -0.494,-0.517 0,-0.286 0.221,-0.516 0.494,-0.516 l 3.154,0 z"
             id="path42"
             inkscape:connector-curvature="0"
             style="fill:#2f2b82" /></g></g></g></g><g
     id="Layer_8" /><g
     id="Layer_11" /><g
     id="Layer_10" /><g
     id="Layer_13"
     display="none" /><g
     id="Layer_14" /><g
     id="Layer_12" /></svg>