<?xml version="1.0" encoding="UTF-8" standalone="no"?>
<!-- Generator: Adobe Illustrator 16.0.0, SVG Export Plug-In . SVG Version: 6.00 Build 0)  -->

<svg
   xmlns:dc="http://purl.org/dc/elements/1.1/"
   xmlns:cc="http://creativecommons.org/ns#"
   xmlns:rdf="http://www.w3.org/1999/02/22-rdf-syntax-ns#"
   xmlns:svg="http://www.w3.org/2000/svg"
   xmlns="http://www.w3.org/2000/svg"
   xmlns:sodipodi="http://sodipodi.sourceforge.net/DTD/sodipodi-0.dtd"
   xmlns:inkscape="http://www.inkscape.org/namespaces/inkscape"
   version="1.1"
   x="0px"
   y="0px"
   width="32px"
   height="31.999px"
   viewBox="0 0 32 31.999"
   enable-background="new 0 0 32 31.999"
   xml:space="preserve"
   id="svg2"
   inkscape:version="0.91 r13725"
   sodipodi:docname="timer.svg"><metadata
     id="metadata50"><rdf:RDF><cc:Work
         rdf:about=""><dc:format>image/svg+xml</dc:format><dc:type
           rdf:resource="http://purl.org/dc/dcmitype/StillImage" /></cc:Work></rdf:RDF></metadata><defs
     id="defs48" /><sodipodi:namedview
     pagecolor="#ffffff"
     bordercolor="#666666"
     borderopacity="1"
     objecttolerance="10"
     gridtolerance="10"
     guidetolerance="10"
     inkscape:pageopacity="0"
     inkscape:pageshadow="2"
     inkscape:window-width="1920"
     inkscape:window-height="1028"
     id="namedview46"
     showgrid="false"
     inkscape:zoom="7.3752303"
     inkscape:cx="-18.236219"
     inkscape:cy="15.9995"
     inkscape:window-x="0"
     inkscape:window-y="147"
     inkscape:window-maximized="1"
     inkscape:current-layer="svg2" /><g
     id="Layer_2" /><g
     id="Layer_1" /><g
     id="Layer_4" /><g
     id="Layer_3" /><g
     id="Layer_6" /><g
     id="Layer_7" /><g
     id="Layer_5" /><g
     id="g4178"
     transform="translate(0.4045,-1.1034997)"><g
       id="Layer_9"><ellipse
         id="ellipse12"
         ry="10.237"
         rx="10.199"
         cy="17.132999"
         cx="16.014999"
         style="fill:#c8d5fc" /></g><g
       id="Layer_8"><g
         id="g15"><g
           id="g17"><path
             id="path19"
             d="m 16.015,17.61 0,0 c -0.524,0 -0.943,-0.42 -0.943,-0.944 l 0,-7.16 c 0,-0.524 0.419,-0.943 0.943,-0.943 l 0,0 c 0.524,0 0.943,0.419 0.943,0.943 l 0,7.161 c 0,0.523 -0.419,0.943 -0.943,0.943 z"
             inkscape:connector-curvature="0"
             style="fill:#2f2b82" /><path
             id="path21"
             d="m 16.958,16.597 0,0.157 c 0,0.489 -0.384,0.873 -0.874,0.873 l -5.938,0 c -0.489,0 -0.873,-0.384 -0.873,-0.873 l 0,-0.157 c 0,-0.489 0.384,-0.874 0.873,-0.874 l 5.938,0 c 0.49,0 0.874,0.384 0.874,0.874 z"
             inkscape:connector-curvature="0"
             style="fill:#2f2b82" /></g><g
           id="g23"><rect
             id="rect25"
             height="1.17"
             width="0.85600001"
             y="6.467"
             x="15.596"
             style="fill:#2f2b82" /><rect
             id="rect27"
             height="1.17"
             width="0.85600001"
             y="25.695999"
             x="15.596"
             style="fill:#2f2b82" /><rect
             id="rect29"
             height="0.85500002"
             width="1.17"
             y="16.247"
             x="25.044001"
             style="fill:#2f2b82" /><rect
             id="rect31"
             height="0.85500002"
             width="1.17"
             y="16.247"
             x="5.816"
             style="fill:#2f2b82" /><circle
             id="circle33"
             r="2.131"
             cy="16.667"
             cx="16.014999"
             style="fill:#fcfcfc" /></g><circle
           id="circle35"
           r="0.94400001"
           cy="16.667"
           cx="16.014999"
           style="fill:#2f2b82" /><g
           id="g37"><path
             id="path39"
             d="m 23.84,24.87 c -2.072,2.198 -4.992,3.589 -8.245,3.589 -6.262,0 -11.356,-5.095 -11.356,-11.356 0,-6.262 5.094,-11.356 11.356,-11.356 6.262,0 11.357,5.094 11.357,11.356 0,1.866 -0.472,3.618 -1.275,5.172 -0.014,0.103 -0.027,0.204 -0.05,0.307 -0.009,0.041 -0.03,0.067 -0.045,0.102 0.004,0.027 0.017,0.048 0.016,0.078 -0.008,0.343 0.109,0.566 0.287,0.717 0.292,0.078 0.512,0.079 0.835,-0.086 0.023,-0.012 0.044,-0.011 0.067,-0.019 1.048,-1.858 1.665,-3.99 1.665,-6.271 0,-7.089 -5.768,-12.856 -12.857,-12.856 -7.089,0 -12.856,5.768 -12.856,12.856 0,7.088 5.768,12.856 12.856,12.856 3.7,0 7.021,-1.588 9.368,-4.099 0.021,-0.297 -0.014,-0.602 -0.208,-0.787 -0.263,-0.252 -0.591,-0.278 -0.915,-0.203 z"
             inkscape:connector-curvature="0"
             style="fill:#2f2b82" /></g></g></g></g><g
     id="Layer_11" /><g
     id="Layer_10" /><g
     id="Layer_13"
     display="none" /><g
     id="Layer_14" /><g
     id="Layer_12" /></svg>